<?xml version="1.0" standalone="no"?>
<!DOCTYPE svg PUBLIC "-//W3C//DTD SVG 20010904//EN"
 "http://www.w3.org/TR/2001/REC-SVG-20010904/DTD/svg10.dtd">
<svg version="1.0" xmlns="http://www.w3.org/2000/svg"
 width="1654.000000pt" height="965.000000pt" viewBox="0 0 1654.000000 965.000000"
 preserveAspectRatio="xMidYMid meet">

<g transform="translate(0.000000,965.000000) scale(0.100000,-0.100000)"
fill="#000000" stroke="none">
<path d="M1395 7403 c-632 -1237 -1202 -2353 -1268 -2481 l-119 -232 707 2
707 3 289 565 288 565 724 3 723 2 135 -567 134 -568 704 -3 704 -2 -6 32 c-6
33 -1139 4821 -1158 4891 l-10 37 -703 0 -703 0 -1148 -2247z m1735 -238 c71
-302 132 -560 135 -572 l5 -23 -441 0 c-379 0 -440 2 -437 14 2 8 136 274 298
591 220 431 297 572 302 558 5 -10 67 -265 138 -568z"/>
<path d="M4450 9633 c0 -10 263 -1125 583 -2478 l583 -2460 710 0 709 0 1262
2470 c695 1359 1263 2473 1263 2478 0 4 -316 7 -702 7 l-703 0 -784 -1536
c-431 -844 -786 -1533 -788 -1530 -3 3 -168 692 -367 1533 l-361 1528 -703 3
c-664 2 -702 1 -702 -15z"/>
<path d="M10275 9643 l-210 -4 -1260 -2466 c-693 -1357 -1261 -2470 -1263
-2475 -2 -4 635 -8 1415 -8 l1418 1 483 567 483 567 -904 5 -904 5 191 373
191 372 1031 0 1032 0 239 278 c131 152 244 285 251 294 11 14 -7 57 -133 307
l-145 291 -835 0 c-459 0 -835 3 -835 7 0 3 84 172 188 374 l187 369 715 0
715 0 178 -347 c97 -192 251 -492 341 -669 l164 -320 -977 -1146 c-537 -630
-1011 -1186 -1054 -1237 l-78 -91 708 1 708 0 605 714 c333 392 609 712 615
711 5 -1 172 -322 371 -712 l362 -709 706 -3 706 -2 -21 42 c-12 24 -296 579
-631 1235 -349 682 -607 1197 -602 1204 4 6 479 565 1056 1242 577 676 1047
1232 1044 1235 -3 2 -322 1 -708 -3 l-703 -7 -600 -705 c-330 -387 -607 -710
-615 -718 -13 -12 -61 76 -375 692 -198 388 -364 711 -370 718 -8 10 -283 14
-1340 17 -731 3 -1424 3 -1540 1z"/>
<path d="M2453 3829 c-318 -37 -551 -266 -593 -583 -13 -96 -1 -255 26 -348
47 -158 168 -306 304 -371 132 -62 295 -85 471 -67 213 21 346 77 463 194 134
133 189 280 188 506 0 225 -48 357 -177 485 -110 110 -237 164 -436 185 -107
11 -144 11 -246 -1z m319 -228 c155 -60 238 -212 238 -437 0 -179 -32 -282
-115 -372 -91 -98 -202 -138 -366 -130 -109 5 -164 25 -228 84 -92 82 -131
188 -138 369 -8 204 30 319 138 419 84 78 146 97 299 92 88 -2 128 -8 172 -25z"/>
<path d="M4912 3830 c-295 -31 -525 -168 -636 -379 -50 -97 -69 -177 -69 -306
-1 -137 14 -207 65 -315 33 -69 56 -100 122 -165 128 -127 260 -184 481 -206
212 -21 510 28 660 109 l50 27 3 298 2 297 -265 0 -265 0 0 -100 0 -100 115 0
115 0 0 -134 0 -133 -62 -29 c-60 -28 -70 -29 -203 -29 -162 0 -233 18 -326
83 -124 87 -180 195 -187 364 -5 125 17 216 72 303 126 197 403 268 668 173
53 -20 106 -43 119 -52 23 -16 24 -15 81 74 32 49 58 94 58 99 0 17 -146 80
-230 100 -102 24 -254 33 -368 21z"/>
<path d="M8285 3834 c-156 -21 -249 -58 -326 -130 -74 -70 -102 -131 -103
-224 -1 -66 3 -84 32 -142 18 -36 50 -82 72 -102 43 -39 146 -93 284 -150 137
-57 204 -94 253 -139 81 -74 97 -159 42 -222 -41 -46 -106 -65 -224 -65 -97 0
-173 16 -269 56 -34 14 -67 26 -75 27 -14 2 -110 -164 -111 -189 0 -16 111
-59 206 -80 107 -23 321 -23 429 0 147 32 278 111 330 200 72 123 47 289 -59
396 -57 58 -128 98 -300 171 -162 68 -258 126 -293 179 -44 64 -22 145 53 190
29 19 56 25 121 28 118 6 182 -8 340 -75 12 -5 76 119 89 172 11 45 -149 90
-346 98 -63 3 -128 3 -145 1z"/>
<path d="M13820 3829 c-200 -24 -377 -117 -498 -262 -51 -61 -115 -189 -133
-267 -18 -76 -15 -269 5 -355 54 -225 227 -402 452 -459 160 -41 388 -41 549
-1 69 17 224 93 238 116 7 11 -6 36 -53 102 -34 48 -65 87 -70 87 -4 0 -25
-14 -46 -31 -86 -68 -186 -99 -320 -99 -151 1 -246 35 -333 121 -89 88 -131
199 -131 349 0 146 39 254 128 351 96 104 206 149 367 149 130 0 218 -19 306
-67 10 -6 121 176 114 186 -9 16 -107 49 -191 65 -104 19 -290 27 -384 15z"/>
<path d="M15765 3834 c-156 -21 -249 -58 -326 -130 -74 -70 -102 -131 -103
-224 -1 -66 3 -84 32 -142 18 -36 50 -82 72 -102 43 -39 146 -93 284 -150 137
-57 204 -94 253 -139 81 -74 97 -159 42 -222 -41 -46 -106 -65 -224 -65 -97 0
-173 16 -269 56 -34 14 -67 26 -75 27 -14 2 -110 -164 -111 -189 0 -16 111
-59 206 -80 107 -23 321 -23 429 0 147 32 278 111 330 200 72 123 47 289 -59
396 -57 58 -128 98 -300 171 -162 68 -258 126 -293 179 -44 64 -22 145 53 190
29 19 56 25 121 28 118 6 182 -8 340 -75 12 -5 76 119 89 172 11 45 -149 90
-346 98 -63 3 -128 3 -145 1z"/>
<path d="M10 3140 l0 -670 530 0 530 0 0 105 0 105 -380 0 -380 0 0 565 0 565
-150 0 -150 0 0 -670z"/>
<path d="M6570 3140 l0 -670 150 0 150 0 0 670 0 670 -150 0 -150 0 0 -670z"/>
<path d="M9650 3705 l0 -105 265 0 265 0 0 -565 0 -565 150 0 150 0 0 565 0
565 280 0 280 0 0 105 0 105 -695 0 -695 0 0 -105z"/>
<path d="M11900 3140 l0 -670 150 0 150 0 0 670 0 670 -150 0 -150 0 0 -670z"/>
<path d="M6435 695 c-5 -2 -22 -6 -38 -9 -38 -9 -100 -67 -122 -116 -20 -45
-13 -66 11 -32 41 58 134 70 186 23 32 -28 33 -32 33 -103 0 -63 -5 -81 -33
-133 -18 -33 -72 -107 -120 -164 -48 -57 -93 -112 -101 -122 -13 -18 -7 -19
188 -19 110 0 201 1 201 3 0 1 9 44 19 94 10 51 14 93 9 93 -4 0 -8 -4 -8 -8
0 -5 -9 -18 -20 -30 -19 -20 -30 -22 -131 -22 l-111 0 78 83 c178 188 215 316
119 411 -38 39 -120 64 -160 51z"/>
<path d="M7422 689 c-18 -5 -50 -27 -72 -49 -95 -95 -115 -352 -39 -508 88
-181 289 -152 351 50 41 134 25 329 -34 426 -41 67 -133 103 -206 81z m104
-54 c11 -27 14 -88 14 -280 0 -280 -6 -315 -58 -315 -17 0 -37 9 -48 21 -18
20 -19 40 -19 294 0 254 1 274 19 294 11 12 31 21 48 21 24 0 32 -6 44 -35z"/>
<path d="M8415 639 c-90 -44 -111 -58 -83 -54 21 3 47 1 58 -5 19 -10 20 -20
20 -259 0 -279 -1 -281 -73 -281 -20 0 -37 -4 -37 -10 0 -6 65 -10 175 -10
110 0 175 4 175 10 0 6 -15 10 -33 10 -67 0 -67 1 -67 348 0 172 -3 312 -7
311 -5 0 -62 -27 -128 -60z"/>
<path d="M9435 695 c-5 -2 -22 -6 -38 -9 -38 -9 -100 -67 -122 -116 -20 -45
-13 -66 11 -32 41 58 134 70 186 23 32 -28 33 -32 33 -103 0 -63 -5 -81 -33
-133 -18 -33 -72 -107 -120 -164 -48 -57 -93 -112 -101 -122 -13 -18 -7 -19
188 -19 110 0 201 1 201 3 0 1 9 44 19 94 10 51 14 93 9 93 -4 0 -8 -4 -8 -8
0 -5 -9 -18 -20 -30 -19 -20 -30 -22 -131 -22 l-111 0 78 83 c178 188 215 316
119 411 -38 39 -120 64 -160 51z"/>
</g>
</svg>
