<?xml version="1.0" standalone="no"?>
<!DOCTYPE svg PUBLIC "-//W3C//DTD SVG 20010904//EN"
 "http://www.w3.org/TR/2001/REC-SVG-20010904/DTD/svg10.dtd">
<svg version="1.0" xmlns="http://www.w3.org/2000/svg"
 width="2365.000000pt" height="1657.000000pt" viewBox="0 0 2365.000000 1657.000000"
 preserveAspectRatio="xMidYMid meet">

<g transform="translate(0.000000,1657.000000) scale(0.100000,-0.100000)"
fill="#000000" stroke="none">
<path d="M2 8283 l3 -8278 11820 0 11820 0 3 8278 2 8277 -11825 0 -11825 0 2
-8277z m4613 5075 c2 -7 38 -121 81 -253 l77 -240 44 140 c123 389 114 365
137 365 21 0 26 -20 89 -342 37 -189 67 -346 67 -350 0 -5 -20 -8 -44 -8 l-45
0 -10 53 c-17 81 -71 371 -72 382 0 6 -35 -91 -78 -215 -48 -139 -83 -225 -91
-225 -8 0 -42 85 -89 225 -42 126 -77 216 -79 205 -3 -11 -21 -110 -41 -220
l-36 -200 -48 -3 c-45 -3 -47 -2 -42 20 2 13 32 165 65 338 34 173 63 321 65
328 2 6 14 12 25 12 11 0 22 -6 25 -12z m878 -179 c85 -23 152 -120 145 -210
l-3 -44 -189 -3 -188 -2 7 -38 c17 -95 65 -143 149 -150 40 -3 61 2 97 21 l46
25 17 -35 c9 -20 16 -37 14 -38 -44 -37 -178 -56 -252 -35 -104 29 -166 122
-166 250 0 192 146 309 323 259z m2814 -4 c92 -39 106 -72 113 -271 4 -135 8
-165 23 -181 27 -30 22 -63 -8 -63 -36 0 -82 26 -90 51 l-7 21 -22 -21 c-54
-51 -154 -66 -216 -32 -42 22 -80 83 -80 129 0 113 124 203 262 190 l50 -5 -6
30 c-19 92 -101 123 -198 74 l-46 -23 -17 33 c-10 18 -16 36 -13 39 3 3 28 14
54 24 60 23 152 25 201 5z m558 -4 c49 -22 98 -76 116 -128 8 -21 14 -76 13
-123 0 -94 -22 -155 -72 -203 -55 -53 -166 -72 -239 -42 -19 8 -37 15 -39 15
-2 0 -4 -49 -4 -110 l0 -110 -45 0 -45 0 0 355 0 355 45 0 c39 0 45 -3 45 -21
0 -20 0 -20 28 -1 15 10 34 22 42 25 32 12 117 6 155 -12z m530 0 c91 -41 142
-147 132 -273 -14 -164 -108 -249 -261 -235 -123 11 -199 109 -200 256 0 42 6
93 13 115 18 51 76 115 126 137 52 24 138 24 190 0z m2352 -17 c62 -39 93 -97
93 -176 l0 -58 -185 0 -185 0 0 -37 c0 -55 41 -117 90 -137 56 -22 99 -20 154
8 l47 24 17 -34 c15 -32 15 -35 -4 -48 -56 -42 -193 -48 -270 -12 -87 40 -133
121 -134 233 0 89 30 162 87 213 57 50 90 60 176 56 53 -3 77 -9 114 -32z
m1207 24 c57 -17 111 -75 130 -139 36 -121 9 -257 -64 -323 -60 -54 -161 -72
-235 -42 l-35 15 0 -110 0 -109 -50 0 -50 0 0 355 0 355 50 0 c38 0 50 -4 50
-15 0 -13 6 -12 38 4 43 23 107 26 166 9z m957 1 c114 -39 147 -183 52 -232
-26 -14 -26 -15 -5 -21 40 -13 72 -63 72 -114 0 -101 -63 -147 -200 -147 -68
1 -94 5 -132 24 -27 13 -48 28 -48 33 0 5 9 23 20 38 l21 29 35 -24 c96 -65
227 -28 210 60 -11 51 -38 69 -111 73 l-65 4 0 34 c0 34 1 34 44 34 49 0 96
15 108 33 17 27 8 75 -18 96 -33 26 -79 27 -144 2 l-50 -19 -16 29 c-19 38
-14 45 44 63 58 18 138 20 183 5z m529 -16 c42 -22 59 -40 84 -83 29 -51 31
-62 31 -155 0 -83 -4 -107 -22 -140 -62 -116 -189 -157 -309 -101 -85 40 -124
117 -124 245 0 159 90 260 231 261 43 0 70 -7 109 -27z m1041 15 c93 -27 162
-133 145 -222 l-7 -36 -186 0 -186 0 7 -42 c9 -53 32 -94 69 -122 37 -27 140
-29 180 -3 36 23 44 22 62 -13 15 -28 14 -30 -9 -45 -53 -35 -161 -46 -240
-24 -52 14 -121 80 -143 137 -25 65 -23 173 4 232 53 119 178 176 304 138z
m554 -7 c49 -22 98 -76 116 -128 8 -21 14 -76 13 -123 0 -94 -22 -155 -72
-203 -55 -53 -166 -72 -239 -42 -19 8 -37 15 -39 15 -2 0 -4 -49 -4 -110 l0
-110 -45 0 -45 0 0 355 0 355 45 0 c39 0 45 -3 45 -21 0 -20 0 -20 28 -1 15
10 34 22 42 25 32 12 117 6 155 -12z m526 7 c93 -27 162 -133 145 -222 l-7
-36 -186 0 -186 0 7 -42 c9 -53 32 -94 69 -122 37 -27 140 -29 180 -3 36 23
44 22 62 -13 15 -28 14 -30 -9 -45 -53 -35 -161 -46 -240 -24 -52 14 -121 80
-143 137 -25 65 -23 173 4 232 53 119 178 176 304 138z m545 -7 c54 -25 74
-55 74 -112 0 -41 -4 -51 -33 -76 l-32 -28 30 -20 c66 -44 81 -139 32 -201
-40 -51 -88 -64 -239 -64 l-138 0 0 254 0 255 28 4 c15 2 74 5 132 5 83 1 114
-2 146 -17z m479 8 c55 -15 117 -82 136 -145 35 -120 1 -272 -72 -326 -99 -73
-239 -62 -316 25 -43 50 -58 99 -58 197 0 75 4 91 30 139 57 104 158 143 280
110z m492 -9 c53 -24 83 -70 83 -128 0 -36 -6 -50 -33 -77 l-32 -32 32 -21
c66 -44 67 -152 3 -206 -59 -49 -171 -60 -262 -26 -84 32 -84 32 -59 74 l22
35 37 -24 c69 -46 177 -43 202 6 14 25 12 71 -4 91 -18 24 -59 38 -112 38 -43
0 -44 0 -44 34 l0 34 61 4 c49 4 66 9 80 27 40 49 11 109 -56 118 -35 4 -74
-5 -136 -31 -11 -5 -20 3 -32 29 -15 31 -15 36 -2 41 99 38 188 43 252 14z
m1133 -240 l0 -260 -45 0 -45 0 -2 166 -3 167 -158 -172 c-87 -94 -162 -171
-168 -171 -5 0 -9 104 -9 260 l0 260 45 0 45 0 2 -167 3 -167 158 172 c87 95
163 172 168 172 5 0 9 -110 9 -260z m-13395 225 c14 -13 25 -32 25 -42 0 -10
9 -37 20 -61 20 -43 63 -72 110 -72 19 0 20 6 20 100 l0 100 45 0 45 0 0 -101
0 -101 38 7 c51 9 80 39 98 102 18 62 52 93 100 93 33 0 34 -1 34 -39 0 -33
-4 -40 -22 -43 -14 -2 -25 -15 -35 -42 -15 -46 -36 -71 -77 -97 l-28 -17 30
-16 c36 -18 66 -64 82 -125 7 -28 18 -45 31 -48 15 -4 19 -14 19 -44 0 -38 -1
-39 -35 -39 -42 0 -81 33 -90 77 -22 100 -49 136 -113 149 l-32 7 0 -117 0
-116 -45 0 -45 0 0 116 0 116 -36 -7 c-70 -13 -101 -51 -118 -147 -8 -46 -46
-78 -92 -78 -33 0 -34 2 -34 38 0 28 5 40 21 47 13 6 28 30 38 63 20 57 41 86
84 112 l28 18 -23 5 c-34 9 -75 55 -90 102 -9 29 -19 41 -36 43 -18 3 -22 10
-22 43 0 39 0 39 40 39 30 0 47 -7 65 -25z m1065 -190 l0 -215 30 0 30 0 0
-125 0 -125 -45 0 -45 0 0 85 0 85 -180 0 -180 0 0 -85 0 -85 -40 0 -40 0 0
124 c0 121 1 125 22 128 30 4 79 80 108 166 13 41 24 104 27 165 l6 97 153 0
154 0 0 -215z m250 25 c40 -105 74 -189 77 -187 3 4 133 367 133 374 0 2 20 3
45 3 25 0 45 -3 45 -7 0 -16 -214 -599 -228 -621 -20 -32 -88 -70 -139 -78
l-43 -7 0 35 c0 31 3 35 43 45 23 7 52 21 65 33 41 38 31 86 -69 348 -50 130
-93 240 -96 245 -2 4 18 7 45 7 l49 0 73 -190z m470 90 l0 -100 115 0 115 0 0
100 0 100 45 0 45 0 0 -255 0 -255 -45 0 -45 0 0 115 0 115 -115 0 -115 0 0
-115 0 -115 -50 0 -50 0 0 255 0 255 50 0 50 0 0 -100z m2440 -115 l0 -215 30
0 30 0 0 -125 0 -125 -40 0 -40 0 0 85 0 85 -180 0 -180 0 0 -85 0 -85 -40 0
-40 0 0 124 c0 122 1 125 22 128 29 4 82 90 109 178 11 36 23 107 26 157 l6
93 149 0 148 0 0 -215z m240 115 l0 -100 115 0 115 0 0 100 0 100 50 0 50 0 0
-255 0 -255 -50 0 -50 0 0 115 0 115 -115 0 -115 0 0 -115 0 -115 -45 0 -45 0
0 255 0 255 45 0 45 0 0 -100z m550 8 l0 -93 61 3 c82 5 140 -12 180 -54 29
-30 34 -42 37 -97 3 -52 0 -67 -20 -97 -13 -19 -43 -45 -68 -57 -39 -20 -60
-23 -167 -23 l-123 0 0 255 0 255 50 0 50 0 0 -92z m450 -163 l0 -255 -45 0
-45 0 0 255 0 255 45 0 45 0 0 -255z m1280 215 l0 -40 -120 0 -120 0 0 -215 0
-215 -45 0 -45 0 0 255 0 255 165 0 165 0 0 -40z m750 -150 c40 -105 74 -189
77 -187 3 4 133 367 133 374 0 2 20 3 45 3 25 0 45 -3 45 -7 0 -16 -214 -599
-228 -621 -20 -32 -88 -70 -139 -78 l-43 -7 0 35 c0 31 3 35 43 45 23 7 52 21
65 33 41 38 31 86 -69 348 -50 130 -93 240 -96 245 -2 4 18 7 45 7 l49 0 73
-190z m1750 -65 l0 -255 -45 0 -45 0 0 215 0 215 -110 0 -110 0 0 -215 0 -215
-50 0 -50 0 0 255 0 255 205 0 205 0 0 -255z m3310 155 c0 -100 0 -100 25
-100 13 0 43 7 66 17 32 12 46 26 60 57 10 23 19 48 19 58 0 27 57 68 96 68
33 0 34 -1 34 -39 0 -33 -4 -40 -22 -43 -14 -2 -25 -15 -35 -43 -16 -47 -44
-79 -84 -96 l-30 -12 29 -18 c40 -23 76 -74 94 -129 11 -33 20 -46 36 -48 18
-3 22 -10 22 -43 0 -39 0 -39 -39 -39 -54 0 -85 30 -105 101 -20 71 -47 106
-94 119 -74 20 -72 23 -72 -105 l0 -115 -50 0 -50 0 0 255 0 255 50 0 50 0 0
-100z m-10431 -2012 c17 -73 276 -1165 574 -2425 l543 -2293 -693 0 -693 0 -7
28 c-4 15 -63 266 -133 557 l-125 530 -701 3 -701 2 -285 -557 -285 -558 -696
-3 -696 -2 73 142 c41 79 593 1158 1226 2398 634 1240 1159 2267 1166 2283
l15 27 693 0 694 0 31 -132z m1839 90 c56 -262 698 -2946 703 -2940 3 4 348
676 765 1494 l759 1488 693 0 c439 0 692 -4 690 -10 -1 -5 -559 -1096 -1238
-2425 l-1234 -2415 -695 2 -695 3 -568 2395 c-312 1317 -570 2407 -573 2423
l-7 27 695 0 695 0 10 -42z m7477 -664 l360 -706 20 25 c11 14 281 331 600
706 l580 681 694 0 c657 0 693 -1 680 -17 -8 -10 -470 -553 -1027 -1206 -557
-654 -1016 -1195 -1018 -1202 -3 -7 272 -553 610 -1214 339 -662 616 -1204
616 -1207 0 -2 -312 -4 -692 -4 l-693 0 -350 686 c-192 378 -354 693 -360 700
-8 10 -149 -149 -605 -686 l-595 -700 -693 0 c-536 0 -692 3 -686 12 4 7 462
546 1018 1198 556 652 1016 1192 1022 1200 10 12 -56 147 -321 665 l-332 650
-544 2 c-299 2 -613 0 -698 -5 l-154 -7 -181 -355 -181 -355 815 -3 815 -2
144 -289 145 -289 -245 -285 -244 -286 -1011 0 -1010 -1 -186 -362 -185 -363
883 -5 884 -5 -475 -557 -476 -558 -1390 0 -1391 0 105 203 c57 111 587 1147
1177 2302 590 1155 1101 2155 1137 2223 l64 122 1507 0 1507 0 360 -706z
m-10513 -4988 c337 -60 518 -265 535 -603 19 -370 -156 -628 -484 -714 -99
-26 -311 -36 -409 -20 -161 27 -303 103 -385 204 -49 61 -102 168 -125 252
-24 90 -29 283 -10 375 53 253 258 454 515 505 87 17 267 18 363 1z m2468 -11
c76 -21 175 -64 208 -91 l22 -19 -61 -92 -62 -93 -31 19 c-17 11 -74 35 -126
53 -82 28 -108 32 -195 32 -114 1 -185 -14 -268 -56 -148 -74 -231 -205 -244
-383 -17 -250 124 -429 378 -481 130 -26 288 -8 366 43 22 15 23 21 23 144 l0
129 -115 0 -115 0 0 100 0 100 260 0 260 0 0 -300 0 -300 -60 -30 c-182 -92
-500 -134 -723 -95 -171 30 -287 88 -398 197 -117 116 -179 274 -179 458 0
359 245 617 646 680 92 14 338 5 414 -15z m3203 10 c80 -14 147 -35 191 -61
17 -10 16 -16 -25 -110 -23 -54 -44 -100 -44 -102 -1 -1 -31 11 -67 28 -173
81 -385 74 -443 -14 -72 -110 17 -204 302 -317 187 -74 286 -147 339 -249 25
-48 29 -66 29 -145 0 -76 -4 -97 -25 -139 -29 -56 -95 -119 -166 -158 -172
-93 -504 -104 -713 -22 -36 15 -70 30 -74 34 -6 5 65 155 98 207 1 2 34 -11
74 -28 201 -84 442 -73 501 23 25 41 25 71 1 123 -37 79 -108 124 -357 229
-174 73 -240 123 -292 221 -23 43 -27 62 -27 140 0 75 4 97 23 133 50 95 173
179 302 206 87 19 267 19 373 1z m5537 -10 c41 -10 99 -28 129 -41 l53 -24
-21 -32 c-12 -18 -38 -61 -59 -95 -27 -45 -41 -61 -52 -56 -123 53 -277 74
-396 54 -255 -45 -418 -286 -376 -558 39 -249 225 -389 491 -369 102 8 203 41
268 89 l48 35 69 -94 c37 -52 67 -97 65 -98 -29 -26 -134 -81 -191 -100 -166
-56 -434 -61 -603 -11 -280 82 -438 290 -452 595 -6 143 11 233 66 345 97 195
289 332 529 375 77 14 347 5 432 -15z m1763 10 c80 -14 147 -35 191 -61 17
-10 16 -16 -25 -110 -23 -54 -44 -100 -44 -102 -1 -1 -31 11 -67 28 -173 81
-385 74 -443 -14 -72 -110 17 -204 302 -317 187 -74 286 -147 339 -249 25 -48
29 -66 29 -145 0 -76 -4 -97 -25 -139 -29 -56 -95 -119 -166 -158 -172 -93
-504 -104 -713 -22 -36 15 -70 30 -74 34 -6 5 65 155 98 207 1 2 34 -11 74
-28 201 -84 442 -73 501 23 25 41 25 71 1 123 -37 79 -108 124 -357 229 -174
73 -240 123 -292 221 -23 43 -27 62 -27 140 0 75 4 97 23 133 50 95 173 179
302 206 87 19 267 19 373 1z m-15373 -560 l0 -555 370 0 370 0 0 -105 0 -105
-515 0 -515 0 0 660 0 660 145 0 145 0 0 -555z m6410 -105 l0 -660 -145 0
-145 0 0 660 0 660 145 0 145 0 0 -660z m4080 555 l0 -105 -275 0 -275 0 0
-555 0 -555 -145 0 -145 0 0 555 0 555 -260 0 -260 0 0 105 0 105 680 0 680 0
0 -105z m1120 -555 l0 -660 -145 0 -145 0 0 660 0 660 145 0 145 0 0 -660z
m-5502 -2389 c119 -61 135 -181 41 -318 -18 -26 -66 -84 -106 -130 l-74 -83
101 0 c101 0 102 0 131 31 16 18 32 30 34 27 3 -2 -3 -46 -12 -96 l-16 -92
-204 0 c-111 0 -203 3 -203 6 0 4 33 46 73 93 155 184 191 247 192 343 0 52
-3 61 -33 90 -28 28 -39 33 -82 33 -43 0 -54 -4 -88 -38 -44 -43 -57 -39 -36
11 50 121 178 176 282 123z m998 3 c49 -24 98 -86 120 -152 14 -43 19 -87 19
-177 0 -141 -19 -212 -71 -273 -97 -114 -238 -91 -309 48 -50 98 -59 279 -19
403 42 133 157 200 260 151z m1004 -290 c0 -191 4 -313 10 -325 7 -11 26 -21
50 -25 87 -14 31 -24 -135 -24 -165 0 -226 11 -134 23 23 3 47 10 53 17 17 17
21 487 4 507 -9 11 -24 14 -55 10 -24 -2 -43 0 -43 5 0 10 216 116 238 117 9
1 12 -66 12 -305z m998 287 c119 -61 135 -181 41 -318 -18 -26 -66 -84 -106
-130 l-74 -83 101 0 c101 0 102 0 131 31 16 18 32 30 34 27 3 -2 -3 -46 -12
-96 l-16 -92 -204 0 c-111 0 -203 3 -203 6 0 4 33 46 73 93 155 184 191 247
192 343 0 52 -3 61 -33 90 -28 28 -39 33 -82 33 -43 0 -54 -4 -88 -38 -44 -43
-57 -39 -36 11 50 121 178 176 282 123z"/>
<path d="M5343 13104 c-34 -17 -73 -69 -73 -98 0 -14 17 -16 141 -16 l141 0
-7 28 c-21 87 -117 128 -202 86z"/>
<path d="M8205 12919 c-50 -14 -90 -63 -90 -109 0 -23 7 -46 16 -56 25 -24 90
-29 128 -10 59 31 71 50 71 115 0 52 -2 59 -22 65 -30 8 -66 6 -103 -5z"/>
<path d="M8685 13104 c-16 -9 -33 -22 -37 -28 -4 -6 -8 -77 -8 -157 0 -132 2
-148 20 -164 31 -28 101 -31 152 -6 60 28 81 68 86 161 5 88 -18 156 -61 184
-37 25 -116 30 -152 10z"/>
<path d="M9234 13101 c-85 -52 -100 -263 -24 -336 59 -56 156 -38 197 37 26
47 26 209 0 256 -32 58 -115 79 -173 43z"/>
<path d="M11555 13106 c-39 -17 -72 -54 -80 -88 l-7 -28 141 0 c158 0 161 2
121 68 -34 55 -111 76 -175 48z"/>
<path d="M12783 13101 l-33 -21 0 -160 0 -159 30 -16 c39 -20 86 -19 138 5 58
26 81 78 82 180 0 120 -40 175 -135 186 -40 4 -57 1 -82 -15z"/>
<path d="M14274 13104 c-17 -8 -42 -34 -55 -57 -20 -35 -24 -56 -23 -122 1
-136 49 -201 142 -192 83 9 122 74 122 203 -1 146 -82 220 -186 168z"/>
<path d="M15332 13103 c-35 -17 -65 -54 -75 -90 l-5 -23 139 0 c133 0 139 1
139 20 0 84 -111 136 -198 93z"/>
<path d="M15855 13104 c-16 -9 -33 -22 -37 -28 -4 -6 -8 -77 -8 -157 0 -132 2
-148 20 -164 31 -28 101 -31 152 -6 60 28 81 68 86 161 5 88 -18 156 -61 184
-37 25 -116 30 -152 10z"/>
<path d="M16412 13103 c-35 -17 -65 -54 -75 -90 l-5 -23 139 0 c133 0 139 1
139 20 0 84 -111 136 -198 93z"/>
<path d="M16890 13050 l0 -70 70 0 c105 0 138 23 128 91 -4 34 -43 49 -125 49
l-73 0 0 -70z"/>
<path d="M16890 12825 l0 -85 73 0 c91 0 140 22 145 64 9 78 -30 106 -148 106
l-70 0 0 -85z"/>
<path d="M17442 13100 c-53 -33 -75 -96 -70 -194 5 -94 25 -138 74 -161 98
-46 179 19 191 155 7 78 -11 151 -47 185 -39 37 -103 44 -148 15z"/>
<path d="M6643 13021 c-14 -93 -43 -180 -78 -233 l-25 -38 125 0 125 0 0 175
0 175 -68 0 -68 0 -11 -79z"/>
<path d="M9807 13003 c-12 -73 -26 -117 -55 -175 l-40 -78 119 0 119 0 0 175
0 175 -63 0 -64 0 -16 -97z"/>
<path d="M10848 12923 c-16 -4 -18 -17 -18 -95 l0 -90 71 4 c63 3 74 7 95 31
25 30 31 75 14 108 -21 39 -98 59 -162 42z"/>
<path d="M6669 8774 c-156 -306 -285 -560 -287 -565 -2 -5 176 -9 423 -9 401
0 426 1 421 18 -2 9 -62 260 -132 557 -69 297 -130 543 -133 548 -4 4 -135
-243 -292 -549z"/>
<path d="M6445 5297 c-202 -53 -306 -229 -291 -492 9 -165 51 -271 136 -348
82 -74 199 -101 337 -78 148 26 267 116 313 239 33 87 46 215 33 320 -25 192
-98 294 -248 346 -66 23 -215 29 -280 13z"/>
<path d="M11333 2413 c-15 -22 -18 -57 -21 -220 -5 -238 3 -338 29 -364 27
-27 55 -24 76 8 16 24 18 55 18 288 0 233 -2 264 -18 288 -23 36 -61 36 -84 0z"/>
</g>
</svg>
